<svg width="48" height="48" viewBox="0 0 48 48" xmlns="http://www.w3.org/2000/svg" role="img" aria-label="MyAnalyst">
  <defs>
    <linearGradient id="f" x1="0" y1="0" x2="0" y2="1">
      <stop offset="0" stop-color="#ff7a4d"/>
      <stop offset="0.5" stop-color="#ff5740"/>
      <stop offset="1" stop-color="#f0271b"/>
    </linearGradient>
    <linearGradient id="g" x1="0" y1="0" x2="0" y2="1">
      <stop offset="0" stop-color="#ffffff" stop-opacity="0.3"/>
      <stop offset="0.5" stop-color="#ffffff" stop-opacity="0"/>
    </linearGradient>
    <clipPath id="c"><rect width="48" height="48" rx="11.5" ry="11.5"/></clipPath>
  </defs>
  <g clip-path="url(#c)">
    <rect width="48" height="48" fill="url(#f)"/>
    <rect width="48" height="48" fill="url(#g)"/>
    <path d="M11 31.5 L19 25.5 L25 28.5 L33 18 L38.5 13.5 L38.5 34 L11 34 Z" fill="#ffffff" fill-opacity="0.13"/>
  </g>
  <rect x="0.75" y="0.75" width="46.5" height="46.5" rx="10.9" ry="10.9" fill="none" stroke="#ffffff" stroke-opacity="0.22"/>
  <path d="M11 31.5 L19 25.5 L25 28.5 L33 18 L38.5 13.5" fill="none" stroke="#ffffff" stroke-width="3.1" stroke-linecap="round" stroke-linejoin="round"/>
  <path d="M32.5 13.5 L38.5 13.5 L38.5 19.5" fill="none" stroke="#ffffff" stroke-width="3.1" stroke-linecap="round" stroke-linejoin="round"/>
  <circle cx="19" cy="25.5" r="1.85" fill="#ffffff"/>
  <circle cx="25" cy="28.5" r="1.85" fill="#ffffff"/>
  <circle cx="33" cy="18" r="1.85" fill="#ffffff"/>
</svg>
